# xmcd
#
# Track frame offsets:
#	150
#	15280
#	29810
#	50153
#	66365
#	82373
#	92373
#	111273
#	128853
#	142758
#
# Disc length: 2057 seconds
#
# Revision: 8
# Processed by: cddbd v1.5.2PL0 Copyright (c) Steve Scherf et al.
# Submitted via: audiograbber 1.83.01
#
DISCID=8908070a
DTITLE=Dwight Yoakam - Hillbilly Deluxe
DYEAR=1987
DGENRE=Country
TTITLE0=Little Ways
TTITLE1=Smoke Along The Track
TTITLE2=Johnson's Love
TTITLE3=Please, Please Baby
TTITLE4=Readin', Rightin', Rt. 23
TTITLE5=Always Late With Your Kisses
TTITLE6=1,000 Miles
TTITLE7=Throughout All Time
TTITLE8=Little Sister
TTITLE9=This Drinkin' Will Kill Me
EXTD=
EXTT0=
EXTT1=
EXTT2=
EXTT3=
EXTT4=
EXTT5=
EXTT6=
EXTT7=
EXTT8=
EXTT9=
PLAYORDER=
